<?xml version="1.0" encoding="UTF-8"?>
<svg id="Calque_1" data-name="Calque 1" xmlns="http://www.w3.org/2000/svg" viewBox="0 0 1732 889.18">
  <g>
    <path d="M678.21,306.44c-.45.22-.95.5-1.45.78-.11-1.67-.28-3.34-.44-4.9.67,1.28,1.34,2.67,1.89,4.12Z" style="fill: #ffffff; stroke-width: 0px;"/>
    <path d="M678.21,306.44c-.45.22-.95.5-1.45.78-.11-1.67-.28-3.34-.44-4.9.67,1.28,1.34,2.67,1.89,4.12Z" style="fill: #ffffff; stroke-width: 0px;"/>
    <path d="M963.08,547.19c-32.21,16.86-65.54,29.15-96.48,31.1,40.56-4.56,73.22-20.36,94.7-33.94l1.78,2.84Z" style="fill: #ffffff; stroke-width: 0px;"/>
    <path d="M963.08,547.19c-32.21,16.86-65.54,29.15-96.48,31.1,40.56-4.56,73.22-20.36,94.7-33.94l1.78,2.84Z" style="fill: #ffffff; stroke-width: 0px;"/>
    <path d="M678.21,306.44c-.45.22-.95.5-1.45.78-.11-1.67-.28-3.34-.44-4.9.67,1.28,1.34,2.67,1.89,4.12Z" style="fill: #ffffff; stroke-width: 0px;"/>
    <path d="M1248.96.15c-20.7-4.23-34.55,83.9-112.61,170.65-77.34,85.91-337.23,150.11-255.94,145.11,56.19-3.45,133.03-20.03,193.96-35.22-20.42,29.21-43.34,56.25-68.6,80.84-57.81,56.25-131.59,108.33-186.11,127.3-7.62-24.87-6.79-61.93-6.01-95.81,1.34-57.53,2.73-116.95-34.27-146.89-20.42-21.03-43.73-28.32-59.42-33.22-22.92-7.23-47.63-9.46-72.33-6.73h-.39c-32.21,2.28-77.95,21.25-147.44,75-16.08,11.02-35,25.82-54.19,45.01l-.33.33c-24.65,24.65-49.8,56.53-70.27,96.76-14.8,29.27-24.65,57.98-30.94,84.74,1.5-2,2.34-3.28,3.28-4.56.67-.89,1.22-1.84,1.84-2.78l6.06-9.96c7.68-15.3,19.64-27.76,29.32-41.73,54.97-79.29,137.87-135.2,200.41-155.79h.06v-.06c3.56-1.17,7.01-2.17,10.4-3.17,6.45-1.78,12.57-3.17,18.42-4.06,22.03-3.51,39.56-.95,50.58,7.4,4.62,3.45,8.23,8.46,10.74,14.8.89,2.17,1.61,4.45,2.17,6.9v.06c.95,17.42.5,36.83.11,53.58-.61,25.37-1.17,52.02,1.45,77.12,3.62,35.22,13.58,67.27,38.84,88.19l.11.17c3.95,3.28,8.24,6.29,12.96,8.96,15.3,8.79,32.38,12.57,50.35,12.57,3.67,0,7.4-.17,11.13-.44,4.56,4.01,9.57,7.68,15.19,10.91,15.3,8.79,32.38,12.52,50.41,12.52,2.67,0,5.4-.06,8.12-.28.17,0,.39,0,.61-.06,40.56-4.56,73.22-20.36,94.7-33.94l1.78,2.84c77.67-40.67,148.39-107.83,160.85-120.01,26.93-26.15,51.41-54.8,73.28-85.74,10.4,30.82,20.53,48.96,29.93,48.35,42.23-2.73,64.37-381.02,21.81-389.64ZM676.76,307.22c-.11-1.67-.28-3.34-.44-4.9.67,1.28,1.34,2.67,1.89,4.12-.45.22-.95.5-1.45.78ZM736.97,370.04c.67-27.71,1.34-55.75-2.28-80.84,2.5.5,4.17,1.28,5.29,1.89,16.19,9.46,15.02,62.15,14.13,100.54-.78,32.88-1.56,67.88,4.67,98.76-24.2-16.14-22.87-71.44-21.81-120.35ZM1176.18,264.38c-26.04,44.57-57.48,84.91-93.75,120.18-43.9,42.73-96.98,83.01-143.94,108.16,55.25-37.33,99.2-79.17,108.83-88.52,43.62-42.45,80.95-91.53,111.06-145.94,9.85-2.84,15.41-4.51,15.41-4.51.83,3.56,1.61,7.12,2.45,10.57-.06,0-.06.06-.06.06Z" style="fill: #ffffff; stroke-width: 0px;"/>
  </g>
  <g>
    <path d="M168.24,792.16c1.23,0,1.96.98,1.96,2.21-11.79,68.28-46.67,94.56-93.33,94.56S0,860.2,0,815.25c0-56.49,42.98-105.61,99.47-105.61,40.03,0,70.74,21.86,73.19,59.19q0,.25-36.35.25c-1.23,0-2.21-.98-2.46-2.21-3.44-19.16-17.68-29.23-36.35-29.23-34.88,0-58.95,36.35-58.95,77.61,0,27.26,13.51,45.44,41.02,45.44,22.6,0,38.07-10.07,44.7-41.51h-42.74c-.98,0-1.96-.98-1.72-2.21l5.16-22.6c.25-1.23,1.48-2.21,2.7-2.21h80.56Z" style="fill: #ffffff; stroke-width: 0px;"/>
    <path d="M201.39,885.25c-1.23,0-1.97-.98-1.72-2.21l20.38-83.75,18.42-83.75c.24-1.23,1.47-2.21,2.7-2.21h115.93c1.23,0,1.96.98,1.72,2.21l-5.4,23.33c-.24,1.23-1.47,2.21-2.7,2.21h-80.32l-9.83,39.54h73.68c1.23,0,1.97.98,1.72,2.21l-5.4,23.33c-.24,1.23-1.47,2.21-2.7,2.21h-73.68l-10.81,49.12h82.28c1.23,0,1.96.98,1.72,2.21l-5.4,23.33c-.24,1.23-1.47,2.21-2.7,2.21h-117.89Z" style="fill: #ffffff; stroke-width: 0px;"/>
    <path d="M528.04,829.99c0,30.21-25.05,59.19-75.16,59.19-42.74,0-78.1-19.89-76.14-59.68.24-1.23,1.23-2.21,2.46-2.21h34.63c1.23,0,2.21.98,2.21,2.21,1.47,19.4,13.75,31.68,39.3,31.68s32.91-13.75,32.91-22.84c0-33.89-94.07-14.74-94.07-71.96,0-29.47,23.82-56.73,73.93-56.73,37.58,0,67.3,14.74,69.51,52.31,0,1.23-.98,2.21-2.21,2.21h-34.88c-1.23,0-2.21-.98-2.21-2.21-.98-14.25-13.26-24.07-32.67-24.07s-32.42,8.35-32.42,20.88c0,31.44,94.81,14.98,94.81,71.23Z" style="fill: #ffffff; stroke-width: 0px;"/>
    <path d="M593.36,885.25c-.98,0-1.96-.98-1.72-2.21l20.88-83.75,12.28-58.21h-47.4c-.98,0-1.96-.98-1.72-2.21l5.4-23.33c.24-1.23,1.48-2.21,2.7-2.21h133.12c1.23,0,1.96.98,1.72,2.21l-5.4,23.33c-.25,1.23-1.48,2.21-2.7,2.21h-47.4l-14.74,58.21-17.68,83.75c-.24,1.23-1.47,2.21-2.7,2.21h-34.63Z" style="fill: #ffffff; stroke-width: 0px;"/>
    <path d="M727.45,885.25c-1.23,0-1.96-.98-1.72-2.21l20.63-83.75,18.18-83.75c.24-1.23,1.47-2.21,2.7-2.21h33.4c1.23,0,1.97.98,1.72,2.21l-20.63,83.75-18.18,83.75c-.24,1.23-1.47,2.21-2.7,2.21h-33.41Z" style="fill: #ffffff; stroke-width: 0px;"/>
    <path d="M867.45,827.78l-12.77,55.26c-.25,1.23-1.48,2.21-2.7,2.21h-30.7c-1.23,0-1.96-.98-1.72-2.21l20.38-83.75,18.42-83.75c.24-1.23,1.47-2.21,2.7-2.21h38.56c1.23,0,2.46.98,2.95,1.96l42.74,122.31.98-4.42,11.3-54.04,14.74-63.61c.25-1.23,1.48-2.21,2.7-2.21h30.7c1.23,0,1.97.98,1.72,2.21l-20.38,83.75-18.42,83.75c-.24,1.23-1.47,2.21-2.7,2.21h-40.04c-1.23,0-2.46-.98-2.94-2.21l-42-121.33-2.46,12.52-11.05,53.54Z" style="fill: #ffffff; stroke-width: 0px;"/>
    <path d="M1115.99,883.29c-.49,1.23-1.97,1.96-3.19,1.96h-44.45c-1.23,0-2.21-.98-2.46-2.21l-16.21-167.51c-.24-1.23.74-2.21,1.96-2.21h34.63c1.23,0,2.21.98,2.46,2.21l7.86,143.19,73.19-143.44c.49-1.23,1.96-1.96,3.19-1.96h34.88c.98,0,1.72.98,1.23,1.96l-93.09,168Z" style="fill: #ffffff; stroke-width: 0px;"/>
    <path d="M1214.71,885.25c-1.23,0-1.97-.98-1.72-2.21l20.38-83.75,18.42-83.75c.24-1.23,1.47-2.21,2.7-2.21h115.93c1.23,0,1.96.98,1.72,2.21l-5.4,23.33c-.24,1.23-1.47,2.21-2.7,2.21h-80.32l-9.83,39.54h73.68c1.23,0,1.97.98,1.72,2.21l-5.4,23.33c-.24,1.23-1.47,2.21-2.7,2.21h-73.68l-10.81,49.12h82.28c1.23,0,1.96.98,1.72,2.21l-5.4,23.33c-.24,1.23-1.47,2.21-2.7,2.21h-117.89Z" style="fill: #ffffff; stroke-width: 0px;"/>
    <path d="M1541.37,829.99c0,30.21-25.05,59.19-75.16,59.19-42.74,0-78.1-19.89-76.14-59.68.24-1.23,1.23-2.21,2.46-2.21h34.63c1.23,0,2.21.98,2.21,2.21,1.47,19.4,13.75,31.68,39.3,31.68s32.91-13.75,32.91-22.84c0-33.89-94.07-14.74-94.07-71.96,0-29.47,23.82-56.73,73.93-56.73,37.58,0,67.3,14.74,69.51,52.31,0,1.23-.98,2.21-2.21,2.21h-34.88c-1.23,0-2.21-.98-2.21-2.21-.98-14.25-13.26-24.07-32.67-24.07s-32.42,8.35-32.42,20.88c0,31.44,94.81,14.98,94.81,71.23Z" style="fill: #ffffff; stroke-width: 0px;"/>
    <path d="M1606.69,885.25c-.98,0-1.96-.98-1.72-2.21l20.88-83.75,12.28-58.21h-47.4c-.98,0-1.96-.98-1.72-2.21l5.4-23.33c.24-1.23,1.48-2.21,2.7-2.21h133.12c1.23,0,1.96.98,1.72,2.21l-5.4,23.33c-.25,1.23-1.48,2.21-2.7,2.21h-47.4l-14.74,58.21-17.68,83.75c-.24,1.23-1.47,2.21-2.7,2.21h-34.63Z" style="fill: #ffffff; stroke-width: 0px;"/>
  </g>
</svg>